HIERARCHY
ROOT mixamorig:Hips
{
	OFFSET 0.000000 3.528733 0.000000
	CHANNELS 6 Xposition Yposition Zposition Xrotation Yrotation Zrotation
	JOINT mixamorig:Spine
	{
		OFFSET 0.000000 0.284700 -0.015200
		CHANNELS 3 Xrotation Yrotation Zrotation
		JOINT mixamorig:Spine1
		{
			OFFSET 0.000000 0.332125 -0.017771
			CHANNELS 3 Xrotation Yrotation Zrotation
			JOINT mixamorig:Spine2
			{
				OFFSET 0.000000 0.379557 -0.020309
				CHANNELS 3 Xrotation Yrotation Zrotation
				JOINT mixamorig:Neck
				{
					OFFSET 0.000000 0.426989 -0.022847
					CHANNELS 3 Xrotation Yrotation Zrotation
					JOINT mixamorig:Head
					{
						OFFSET 0.000000 0.288600 0.098000
						CHANNELS 3 Xrotation Yrotation Zrotation
						JOINT mixamorig:HeadTop_End
						{
							OFFSET 0.000000 0.712700 0.242000
							CHANNELS 3 Xrotation Yrotation Zrotation
							End Site
							{
								OFFSET 0.000000 0.752666 0.000000
							}
						}
					}
				}
				JOINT mixamorig:LeftShoulder
				{
					OFFSET 0.202600 0.346984 -0.022672
					CHANNELS 3 Xrotation Yrotation Zrotation
					JOINT mixamorig:LeftArm
					{
						OFFSET 0.427337 -0.109325 0.000307
						CHANNELS 3 Xrotation Yrotation Zrotation
						JOINT mixamorig:LeftForeArm
						{
							OFFSET 0.849600 0.000000 0.000000
							CHANNELS 3 Xrotation Yrotation Zrotation
							JOINT mixamorig:LeftHand
							{
								OFFSET 0.753900 0.000000 0.000000
								CHANNELS 3 Xrotation Yrotation Zrotation
								JOINT mixamorig:LeftHandThumb1
								{
									OFFSET 0.136012 -0.086473 0.045448
									CHANNELS 3 Xrotation Yrotation Zrotation
									JOINT mixamorig:LeftHandThumb2
									{
										OFFSET 0.103772 -0.059913 0.059913
										CHANNELS 3 Xrotation Yrotation Zrotation
										JOINT mixamorig:LeftHandThumb3
										{
											OFFSET 0.095779 -0.055298 0.055298
											CHANNELS 3 Xrotation Yrotation Zrotation
											JOINT mixamorig:LeftHandThumb4
											{
												OFFSET 0.073275 -0.042305 0.042305
												CHANNELS 3 Xrotation Yrotation Zrotation
												End Site
												{
													OFFSET 0.065698 -0.038445 0.056164
												}
											}
										}
									}
								}
								JOINT mixamorig:LeftHandIndex1
								{
									OFFSET 0.449965 -0.020370 0.085418
									CHANNELS 3 Xrotation Yrotation Zrotation
									JOINT mixamorig:LeftHandIndex2
									{
										OFFSET 0.102424 0.000000 -0.000000
										CHANNELS 3 Xrotation Yrotation Zrotation
										JOINT mixamorig:LeftHandIndex3
										{
											OFFSET 0.096306 0.000000 -0.000000
											CHANNELS 3 Xrotation Yrotation Zrotation
											JOINT mixamorig:LeftHandIndex4
											{
												OFFSET 0.078408 0.000000 -0.000000
												CHANNELS 3 Xrotation Yrotation Zrotation
												End Site
												{
													OFFSET 0.078400 -0.000010 -0.001100
												}
											}
										}
									}
								}
								JOINT mixamorig:LeftHandMiddle1
								{
									OFFSET 0.430485 0.000000 0.000000
									CHANNELS 3 Xrotation Yrotation Zrotation
									JOINT mixamorig:LeftHandMiddle2
									{
										OFFSET 0.112203 0.000000 0.000000
										CHANNELS 3 Xrotation Yrotation Zrotation
										JOINT mixamorig:LeftHandMiddle3
										{
											OFFSET 0.108209 0.000000 0.000000
											CHANNELS 3 Xrotation Yrotation Zrotation
											JOINT mixamorig:LeftHandMiddle4
											{
												OFFSET 0.087466 0.000000 0.000000
												CHANNELS 3 Xrotation Yrotation Zrotation
												End Site
												{
													OFFSET 0.087400 -0.000057 -0.003400
												}
											}
										}
									}
								}
								JOINT mixamorig:LeftHandRing1
								{
									OFFSET 0.364574 -0.002440 -0.092011
									CHANNELS 3 Xrotation Yrotation Zrotation
									JOINT mixamorig:LeftHandRing2
									{
										OFFSET 0.114832 0.000000 0.000000
										CHANNELS 3 Xrotation Yrotation Zrotation
										JOINT mixamorig:LeftHandRing3
										{
											OFFSET 0.104409 0.000000 0.000000
											CHANNELS 3 Xrotation Yrotation Zrotation
											JOINT mixamorig:LeftHandRing4
											{
												OFFSET 0.080424 0.000000 0.000000
												CHANNELS 3 Xrotation Yrotation Zrotation
												End Site
												{
													OFFSET 0.080200 -0.000053 -0.006000
												}
											}
										}
									}
								}
								JOINT mixamorig:LeftHandPinky1
								{
									OFFSET 0.312269 -0.016255 -0.171399
									CHANNELS 3 Xrotation Yrotation Zrotation
									JOINT mixamorig:LeftHandPinky2
									{
										OFFSET 0.087028 0.000000 0.000000
										CHANNELS 3 Xrotation Yrotation Zrotation
										JOINT mixamorig:LeftHandPinky3
										{
											OFFSET 0.073733 0.000000 0.000000
											CHANNELS 3 Xrotation Yrotation Zrotation
											JOINT mixamorig:LeftHandPinky4
											{
												OFFSET 0.056250 0.000000 0.000000
												CHANNELS 3 Xrotation Yrotation Zrotation
												End Site
												{
													OFFSET 0.056100 -0.000056 -0.004100
												}
											}
										}
									}
								}
							}
						}
					}
				}
				JOINT mixamorig:RightShoulder
				{
					OFFSET -0.202600 0.346968 -0.022971
					CHANNELS 3 Xrotation Yrotation Zrotation
					JOINT mixamorig:RightArm
					{
						OFFSET -0.427342 -0.109309 -0.000307
						CHANNELS 3 Xrotation Yrotation Zrotation
						JOINT mixamorig:RightForeArm
						{
							OFFSET -0.849600 0.000000 -0.000000
							CHANNELS 3 Xrotation Yrotation Zrotation
							JOINT mixamorig:RightHand
							{
								OFFSET -0.753900 0.000000 -0.000000
								CHANNELS 3 Xrotation Yrotation Zrotation
								JOINT mixamorig:RightHandThumb1
								{
									OFFSET -0.139217 -0.077736 0.046135
									CHANNELS 3 Xrotation Yrotation Zrotation
									JOINT mixamorig:RightHandThumb2
									{
										OFFSET -0.102889 -0.059403 0.059403
										CHANNELS 3 Xrotation Yrotation Zrotation
										JOINT mixamorig:RightHandThumb3
										{
											OFFSET -0.097122 -0.056073 0.056073
											CHANNELS 3 Xrotation Yrotation Zrotation
											JOINT mixamorig:RightHandThumb4
											{
												OFFSET -0.076714 -0.044291 0.044291
												CHANNELS 3 Xrotation Yrotation Zrotation
												End Site
												{
													OFFSET -0.072157 -0.042014 0.053259
												}
											}
										}
									}
								}
								JOINT mixamorig:RightHandIndex1
								{
									OFFSET -0.450325 -0.003448 0.076701
									CHANNELS 3 Xrotation Yrotation Zrotation
									JOINT mixamorig:RightHandIndex2
									{
										OFFSET -0.104343 0.000000 -0.000000
										CHANNELS 3 Xrotation Yrotation Zrotation
										JOINT mixamorig:RightHandIndex3
										{
											OFFSET -0.097003 0.000000 -0.000000
											CHANNELS 3 Xrotation Yrotation Zrotation
											JOINT mixamorig:RightHandIndex4
											{
												OFFSET -0.081630 0.000000 -0.000000
												CHANNELS 3 Xrotation Yrotation Zrotation
												End Site
												{
													OFFSET -0.081600 -0.000082 -0.002198
												}
											}
										}
									}
								}
								JOINT mixamorig:RightHandMiddle1
								{
									OFFSET -0.397234 0.000000 -0.000000
									CHANNELS 3 Xrotation Yrotation Zrotation
									JOINT mixamorig:RightHandMiddle2
									{
										OFFSET -0.115313 0.000000 -0.000000
										CHANNELS 3 Xrotation Yrotation Zrotation
										JOINT mixamorig:RightHandMiddle3
										{
											OFFSET -0.121324 0.000000 -0.000000
											CHANNELS 3 Xrotation Yrotation Zrotation
											JOINT mixamorig:RightHandMiddle4
											{
												OFFSET -0.103502 0.000000 0.000000
												CHANNELS 3 Xrotation Yrotation Zrotation
												End Site
												{
													OFFSET -0.103400 -0.000083 -0.004599
												}
											}
										}
									}
								}
								JOINT mixamorig:RightHandRing1
								{
									OFFSET -0.356229 0.006227 -0.097026
									CHANNELS 3 Xrotation Yrotation Zrotation
									JOINT mixamorig:RightHandRing2
									{
										OFFSET -0.116123 0.000000 0.000000
										CHANNELS 3 Xrotation Yrotation Zrotation
										JOINT mixamorig:RightHandRing3
										{
											OFFSET -0.105608 0.000000 0.000000
											CHANNELS 3 Xrotation Yrotation Zrotation
											JOINT mixamorig:RightHandRing4
											{
												OFFSET -0.089388 0.000000 0.000000
												CHANNELS 3 Xrotation Yrotation Zrotation
												End Site
												{
													OFFSET -0.089200 -0.000198 -0.005797
												}
											}
										}
									}
								}
								JOINT mixamorig:RightHandPinky1
								{
									OFFSET -0.319258 -0.005155 -0.189362
									CHANNELS 3 Xrotation Yrotation Zrotation
									JOINT mixamorig:RightHandPinky2
									{
										OFFSET -0.084919 0.000000 0.000000
										CHANNELS 3 Xrotation Yrotation Zrotation
										JOINT mixamorig:RightHandPinky3
										{
											OFFSET -0.068357 0.000000 0.000000
											CHANNELS 3 Xrotation Yrotation Zrotation
											JOINT mixamorig:RightHandPinky4
											{
												OFFSET -0.053427 0.000000 0.000000
												CHANNELS 3 Xrotation Yrotation Zrotation
												End Site
												{
													OFFSET -0.053400 -0.000117 -0.001696
												}
											}
										}
									}
								}
							}
						}
					}
				}
			}
		}
	}
	JOINT mixamorig:LeftUpLeg
	{
		OFFSET 0.302300 -0.158000 -0.006800
		CHANNELS 3 Xrotation Yrotation Zrotation
		JOINT mixamorig:LeftLeg
		{
			OFFSET -0.021195 -1.512800 -0.072827
			CHANNELS 3 Xrotation Yrotation Zrotation
			JOINT mixamorig:LeftFoot
			{
				OFFSET 0.021196 -1.499076 -0.232845
				CHANNELS 3 Xrotation Yrotation Zrotation
				JOINT mixamorig:LeftToeBase
				{
					OFFSET 0.176214 -0.335644 0.384848
					CHANNELS 3 Xrotation Yrotation Zrotation
					JOINT mixamorig:LeftToe_End
					{
						OFFSET 0.078950 -0.008059 0.195507
						CHANNELS 3 Xrotation Yrotation Zrotation
						End Site
						{
							OFFSET 0.078950 -0.008059 0.195507
						}
					}
				}
			}
		}
	}
	JOINT mixamorig:RightUpLeg
	{
		OFFSET -0.302300 -0.158000 -0.006600
		CHANNELS 3 Xrotation Yrotation Zrotation
		JOINT mixamorig:RightLeg
		{
			OFFSET 0.021196 -1.512831 -0.074247
			CHANNELS 3 Xrotation Yrotation Zrotation
			JOINT mixamorig:RightFoot
			{
				OFFSET -0.021196 -1.499093 -0.231430
				CHANNELS 3 Xrotation Yrotation Zrotation
				JOINT mixamorig:RightToeBase
				{
					OFFSET -0.176206 -0.335620 0.376547
					CHANNELS 3 Xrotation Yrotation Zrotation
					JOINT mixamorig:RightToe_End
					{
						OFFSET -0.078935 -0.008056 0.196268
						CHANNELS 3 Xrotation Yrotation Zrotation
						End Site
						{
							OFFSET -0.078935 -0.008056 0.196268
						}
					}
				}
			}
		}
	}
}
MOTION
Frames: 6
Frame Time: 0.016667
1.610899 2.912832 0.128244 363.700033 5.217578 -6.622497 12.636438 4.676389 4.912903 3.136581 0.566693 1.911738 3.127233 0.586056 1.920648 -2.540239 1.199254 -0.808771 14.555965 7.221825 -26.996379 -0.000000 0.000000 -0.000001 -0.103535 4.660300 0.081508 30.455079 -3.150495 -63.312937 -0.001976 -89.826700 -0.000425 8.526645 -13.407609 0.359025 -1.805326 14.608660 7.803174 4.820934 18.910104 1.546114 0.375515 12.515274 3.566397 -0.000000 0.000002 -0.000001 0.000005 0.000009 -0.000010 0.109346 1.224722 -10.203898 0.109352 1.224716 -10.203889 0.000003 -0.000002 0.000002 0.010277 0.376724 -3.123243 0.094488 1.139142 -9.483814 0.119198 1.278215 -10.654742 0.000001 0.000001 -0.000001 0.052471 0.850223 -7.063673 0.125650 1.311996 -10.939969 0.142831 1.397987 -11.666936 0.000003 0.000002 0.000001 1.032668 5.464083 -12.101918 0.160866 -2.552524 -13.058196 0.165429 1.503236 -12.559615 0.000001 -0.000002 0.000001 0.725758 -5.772617 11.382094 391.333858 -1.935349 -350.761633 0.000003 97.581963 0.000055 4.260225 14.670495 -13.753746 -2.167950 -15.542128 -8.494149 5.697553 -20.650908 -1.018582 -0.236536 -11.852636 -3.315952 0.000001 -0.000003 -0.000004 0.000000 -0.000007 -0.000010 0.065381 -0.953276 7.847553 0.065399 -0.953292 7.847560 0.000000 -0.000004 0.000003 0.019800 -0.525470 4.315866 0.096561 -1.157091 9.540116 0.117345 -1.274645 10.519865 0.000000 -0.000001 -0.000000 0.100071 -1.177737 9.711821 0.192780 -1.629170 13.496558 0.213481 -1.713105 14.206338 0.000000 0.000002 -0.000001 0.314711 -2.072100 17.270644 0.314718 -2.072115 17.270659 0.314708 -2.072104 17.270634 -0.000000 0.000001 -0.000000 -44.831511 -7.136359 4.952841 71.046467 7.462952 5.768023 -29.253874 1.218979 -4.669239 -4.071145 -0.000010 -0.000001 0.000000 -0.000007 -0.000002 -16.180395 12.297170 -25.570854 37.204505 -0.127496 -1.115881 -0.233797 -1.377977 25.005230 -11.677854 -0.003964 1.630264 0.000001 -0.000001 -0.000001 
1.595894 2.891971 0.126673 363.974442 6.193309 -7.027209 12.332177 4.988421 5.278802 3.016373 0.593028 2.782310 3.000411 0.630953 2.790255 -3.365036 0.686656 0.217828 13.065596 7.830538 -24.147265 -0.000002 -0.000002 0.000003 -0.184844 4.588866 1.317422 32.567653 -1.786995 -65.031952 0.001193 -90.163975 -0.000151 8.103178 -14.457151 -0.067935 -1.805326 14.608658 7.803174 4.820934 18.910116 1.546119 0.375510 12.515277 3.566392 -0.000000 0.000004 0.000002 -0.000012 0.000002 -0.000003 0.109343 1.224726 -10.203903 0.109351 1.224724 -10.203889 0.000001 -0.000000 0.000001 0.010266 0.376715 -3.123241 0.094500 1.139138 -9.483822 0.119199 1.278212 -10.654742 -0.000002 -0.000001 0.000000 0.052468 0.850224 -7.063662 0.125646 1.312008 -10.939973 0.142835 1.397994 -11.666943 0.000001 0.000001 -0.000001 1.032658 5.464090 -12.101924 0.160860 -2.552523 -13.058186 0.165429 1.503233 -12.559618 0.000004 -0.000003 -0.000001 0.638125 -6.129272 10.269982 390.472189 -3.201940 -353.529881 0.000036 97.422779 0.000026 3.825925 15.396307 -12.990531 -2.167947 -15.542130 -8.494148 5.697558 -20.650911 -1.018590 -0.236534 -11.852634 -3.315954 -0.000001 -0.000003 -0.000004 -0.000003 -0.000008 0.000010 0.065383 -0.953277 7.847541 0.065399 -0.953292 7.847565 0.000001 0.000001 0.000001 0.019797 -0.525456 4.315886 0.096565 -1.157121 9.540116 0.117343 -1.274627 10.519875 0.000000 -0.000001 0.000002 0.100062 -1.177733 9.711834 0.192796 -1.629186 13.496528 0.213491 -1.713107 14.206338 0.000001 -0.000002 0.000001 0.314717 -2.072108 17.270658 0.314702 -2.072095 17.270671 0.314722 -2.072113 17.270637 -0.000000 -0.000000 0.000000 -45.904684 -8.621408 4.175107 72.350951 8.364300 6.134714 -29.659055 1.125023 -4.466344 -4.318292 -0.000000 0.000012 -0.000000 -0.000002 -0.000000 -15.482051 12.471329 -24.763684 37.576883 -2.144594 -1.336575 -3.559646 -2.101247 25.294880 -9.970309 -0.006259 2.033183 -0.000000 0.000001 -0.000002 
1.585469 2.874283 0.125188 364.260573 7.063776 -7.322303 11.908057 5.105842 5.360161 2.953336 0.599844 3.610445 2.931055 0.654894 3.617692 -3.830700 0.171017 1.112083 11.601209 8.073233 -19.986587 -0.000002 0.000000 -0.000001 -0.276435 4.483680 2.771329 34.208050 -0.907740 -66.614405 -0.005639 -90.099757 -0.007357 8.215523 -15.130933 -0.371028 -1.805326 14.608661 7.803173 4.820935 18.910111 1.546117 0.375511 12.515274 3.566392 0.000001 0.000000 -0.000003 -0.000002 -0.000008 -0.000004 0.109343 1.224725 -10.203901 0.109352 1.224711 -10.203889 0.000002 0.000002 -0.000002 0.010274 0.376720 -3.123246 0.094490 1.139136 -9.483797 0.119201 1.278211 -10.654744 0.000001 -0.000001 0.000002 0.052474 0.850233 -7.063652 0.125655 1.311984 -10.939988 0.142826 1.397989 -11.666943 0.000001 -0.000001 -0.000001 1.032660 5.464095 -12.101919 0.160871 -2.552517 -13.058195 0.165425 1.503240 -12.559617 -0.000001 -0.000001 -0.000001 0.555110 -6.363416 9.285801 389.444054 -3.795953 -355.984979 -0.000007 96.880612 0.000046 3.344084 15.865642 -12.292796 -2.167950 -15.542131 -8.494148 5.697555 -20.650906 -1.018590 -0.236529 -11.852640 -3.315952 -0.000001 -0.000003 -0.000006 -0.000008 -0.000001 0.000012 0.065377 -0.953272 7.847548 0.065396 -0.953290 7.847561 -0.000001 -0.000001 -0.000000 0.019795 -0.525470 4.315879 0.096560 -1.157096 9.540102 0.117345 -1.274630 10.519879 0.000000 -0.000003 0.000001 0.100054 -1.177742 9.711832 0.192787 -1.629191 13.496526 0.213486 -1.713101 14.206338 0.000000 0.000003 -0.000001 0.314714 -2.072105 17.270642 0.314703 -2.072104 17.270651 0.314711 -2.072112 17.270654 0.000001 0.000002 -0.000001 -46.864394 -9.930625 3.248861 73.406707 9.274877 6.481447 -29.980624 1.025043 -4.257173 -4.549272 -0.000002 -0.000009 -0.000000 -0.000003 -0.000002 -15.194258 12.365884 -24.204292 38.089687 -4.084614 -1.506633 -6.270576 -2.660608 25.203958 -8.149363 -0.008400 2.342092 -0.000000 0.000002 -0.000000 
1.580889 2.860145 0.123878 364.543397 7.640272 -7.567835 11.358203 5.199672 5.345591 2.970095 0.613503 4.354948 2.941827 0.681525 4.362386 -3.905978 -0.307071 1.911352 10.414354 7.789972 -15.465736 0.000000 0.000001 -0.000000 -0.359322 4.325423 4.227949 35.454880 -0.451192 -67.852417 0.006631 -89.896716 0.009945 8.561243 -15.405864 -0.607665 -1.805325 14.608658 7.803173 4.820934 18.910106 1.546119 0.375512 12.515273 3.566396 0.000002 0.000002 -0.000001 -0.000022 -0.000007 -0.000006 0.109341 1.224726 -10.203900 0.109347 1.224718 -10.203893 -0.000002 -0.000000 -0.000000 0.010260 0.376721 -3.123240 0.094506 1.139142 -9.483814 0.119198 1.278217 -10.654740 -0.000001 0.000002 -0.000002 0.052462 0.850215 -7.063669 0.125635 1.312027 -10.939984 0.142828 1.397992 -11.666942 -0.000001 0.000000 -0.000001 1.032652 5.464077 -12.101929 0.160872 -2.552529 -13.058196 0.165430 1.503240 -12.559618 0.000001 0.000002 -0.000001 0.481364 -6.558475 8.448642 388.212325 -3.839287 -358.047833 -0.000035 96.213139 0.000078 2.692243 16.176099 -11.598179 -2.167947 -15.542128 -8.494151 5.697555 -20.650910 -1.018588 -0.236534 -11.852636 -3.315957 0.000000 -0.000001 -0.000004 -0.000005 -0.000001 -0.000002 0.065383 -0.953276 7.847541 0.065398 -0.953294 7.847562 0.000002 0.000000 -0.000001 0.019791 -0.525434 4.315874 0.096576 -1.157101 9.540105 0.117347 -1.274624 10.519878 0.000001 -0.000000 -0.000001 0.100056 -1.177729 9.711825 0.192788 -1.629180 13.496536 0.213501 -1.713107 14.206348 0.000000 0.000000 0.000001 0.314707 -2.072113 17.270652 0.314721 -2.072102 17.270639 0.314704 -2.072107 17.270661 -0.000000 -0.000001 -0.000000 -47.704350 -10.987633 2.420019 74.307008 9.823960 6.711050 -30.093930 1.120311 -4.115274 -4.766300 0.000007 0.000003 -0.000000 -0.000005 -0.000001 -15.294064 12.063620 -23.931543 38.596187 -5.361624 -1.556088 -8.150981 -3.021578 24.943337 -6.618905 -0.009935 2.538005 -0.000000 0.000001 -0.000001 
1.582780 2.849686 0.122593 364.823107 7.801674 -7.828789 10.675459 5.373499 5.419640 3.076717 0.650038 5.000338 3.042248 0.725225 5.009239 -3.645653 -0.710464 2.616073 9.748161 7.038752 -11.510185 -0.000002 0.000000 -0.000000 -0.424702 4.155432 5.504304 36.426724 -0.321423 -68.532028 0.000852 -89.856418 0.002724 8.854010 -15.368361 -0.813622 -1.805330 14.608658 7.803174 4.820937 18.910116 1.546119 0.375510 12.515273 3.566395 0.000001 -0.000001 -0.000001 0.000006 0.000001 0.000005 0.109345 1.224726 -10.203900 0.109351 1.224724 -10.203893 0.000002 0.000002 0.000000 0.010262 0.376729 -3.123242 0.094499 1.139129 -9.483821 0.119201 1.278213 -10.654742 0.000000 0.000000 0.000001 0.052470 0.850235 -7.063662 0.125631 1.312003 -10.940010 0.142831 1.397986 -11.666940 -0.000003 0.000002 -0.000000 1.032667 5.464087 -12.101905 0.160875 -2.552525 -13.058203 0.165434 1.503235 -12.559616 -0.000001 0.000000 0.000002 0.417595 -6.767196 7.758246 386.685696 -3.484610 -359.638584 0.000125 95.670528 -0.000088 1.729649 16.500193 -10.779270 -2.167947 -15.542130 -8.494147 5.697560 -20.650910 -1.018588 -0.236531 -11.852639 -3.315953 0.000001 0.000000 -0.000006 -0.000009 0.000001 0.000001 0.065379 -0.953273 7.847544 0.065400 -0.953290 7.847564 -0.000000 -0.000001 0.000000 0.019775 -0.525467 4.315891 0.096574 -1.157121 9.540121 0.117352 -1.274625 10.519873 -0.000000 0.000001 0.000002 0.100037 -1.177746 9.711847 0.192780 -1.629184 13.496543 0.213483 -1.713096 14.206334 0.000000 0.000001 -0.000000 0.314692 -2.072117 17.270656 0.314707 -2.072109 17.270659 0.314712 -2.072109 17.270654 -0.000000 0.000001 -0.000000 -48.387123 -11.695400 1.860180 75.071777 9.899956 6.800148 -30.184115 1.485065 -3.784476 -4.958973 -0.000001 0.000002 -0.000000 -0.000005 -0.000000 -15.720816 11.683183 -23.891317 38.945192 -5.672879 -1.489724 -9.098949 -3.192705 24.707410 -5.706666 -0.010675 2.627142 0.000001 0.000000 0.000001 
1.591112 2.843097 0.121048 365.104975 7.509749 -8.129863 9.867164 5.633711 5.690333 3.269819 0.711454 5.537239 3.228793 0.787211 5.549109 -3.129970 -1.012289 3.148801 9.688087 6.037202 -8.655299 -0.000000 0.000000 -0.000001 -0.472230 4.018070 6.495469 37.245817 -0.404467 -68.492263 -0.001526 -90.240480 -0.001324 8.919074 -15.177461 -0.992175 -1.805327 14.608651 7.803177 4.820935 18.910110 1.546122 0.375510 12.515277 3.566394 0.000001 0.000000 -0.000003 0.000004 -0.000003 -0.000002 0.109342 1.224724 -10.203900 0.109353 1.224717 -10.203889 0.000001 -0.000001 0.000001 0.010262 0.376728 -3.123244 0.094500 1.139135 -9.483809 0.119199 1.278217 -10.654745 0.000001 0.000002 -0.000001 0.052468 0.850222 -7.063678 0.125657 1.312010 -10.939971 0.142831 1.397992 -11.666944 0.000001 -0.000001 0.000001 1.032670 5.464082 -12.101912 0.160860 -2.552525 -13.058199 0.165427 1.503236 -12.559615 -0.000001 0.000001 0.000001 0.369936 -6.962973 7.269720 384.754665 -2.913442 -360.688903 0.000117 95.437885 -0.000029 0.273915 17.007528 -9.674582 -2.167948 -15.542128 -8.494150 5.697559 -20.650913 -1.018596 -0.236533 -11.852637 -3.315957 -0.000001 -0.000002 -0.000004 0.000000 0.000004 0.000001 0.065380 -0.953274 7.847548 0.065399 -0.953294 7.847564 -0.000001 0.000002 0.000002 0.019800 -0.525464 4.315873 0.096550 -1.157106 9.540122 0.117353 -1.274628 10.519876 0.000000 -0.000001 0.000000 0.100052 -1.177719 9.711849 0.192782 -1.629172 13.496526 0.213483 -1.713108 14.206349 0.000000 0.000000 -0.000000 0.314704 -2.072089 17.270669 0.314717 -2.072091 17.270646 0.314709 -2.072110 17.270642 0.000001 -0.000001 -0.000000 -48.902170 -12.050537 1.698171 75.644338 9.937943 6.756856 -30.304371 1.715593 -3.512675 -5.094712 -0.000000 0.000013 -0.000000 -0.000005 -0.000000 -16.407989 11.335829 -23.995590 39.021793 -5.054263 -1.365056 -9.078300 -3.188746 24.615590 -5.575375 -0.010653 2.625461 0.000001 0.000004 -0.000001 
